{"title":"X-Men First Class 2011 BRRip XViD DTRG","uid":6631569,"size":1947261065,"categoryP":"video","categoryS":"movies","magnet":"?xt=urn:btih:c0433896341c357d7a2c6fb50615d1d505494d0f&amp;dn=X-Men+First+Class+2011+BRRip+XViD+DTRG&amp;tr=udp%3A%2F%2Ftracker.openbittorrent.com%3A80&amp;tr=udp%3A%2F%2Fopen.demonii.com%3A1337&amp;tr=udp%3A%2F%2Ftracker.coppersurfer.tk%3A6969&amp;tr=udp%3A%2F%2Fexodus.desync.com%3A6969","seeders":0,"leechers":1,"uploader":"SAFCukO09","files":3,"time":1314388068,"description":"Format : AVI\nFormat/Info : Audio Video Interleave\nFile size : 1.81 GiB\nDuration : 2h 6mn\nOverall bit rate : 2 056 Kbps\nWriting application : VirtualDubMod 1.5.10.2 (build 2540/release)\nWriting library : VirtualDubMod build 2540/release\n\nVideo\nID : 0\nFormat : MPEG-4 Visual\nFormat profile : Advanced Simple@L5\nFormat settings, BVOP : 2\nFormat settings, QPel : No\nFormat settings, GMC : No warppoints\nFormat settings, Matrix : Default (MPEG)\nMuxing mode : Packed bitstream\nCodec ID : XVID\nCodec ID/Hint : XviD\nDuration : 2h 6mn\nBit rate : 1 791 Kbps\nWidth : 720 pixels\nHeight : 304 pixels\nDisplay aspect ratio : 2.35:1\nFrame rate : 23.976 fps\nColor space : YUV\nChroma subsampling : 4:2:0\nBit depth : 8 bits\nScan type : Progressive\nCompression mode : Lossy\nBits/(Pixel*Frame) : 0.341\nStream size : 1.58 GiB (87%)\nWriting library : XviD 64\n\nAudio\nID : 1\nFormat : AC-3\nFormat/Info : Audio Coding 3\nMode extension : CM (complete main)\nCodec ID : 2000\nDuration : 2h 6mn\nBit rate mode : Constant\nBit rate : 256 Kbps\nChannel(s) : 6 channels\nChannel positions : Front: L C R, Side: L R, LFE\nSampling rate : 48.0 KHz\nBit depth : 16 bits\nCompression mode : Lossy\nStream size : 231 MiB (12%)\nAlignment : Aligned on interleaves\nInterleave, duration : 42 ms (1.00 video frame)\nInterleave, preload duration : 512 ms\n\n\n\n\n\n\n\n\n\n &lt;a href=&quot;\nhttp://www.imdb.com/title/tt1270798/&quot; rel=&quot;nofollow&quot; target=&quot;_NEW&quot;&gt;\nhttp://www.imdb.com/title/tt1270798/&lt;/a&gt;\n\n\n\n\n\n\n\n\n\nIn 1962, the United States government enlists the help of Mutants with superhuman abilities to stop a malicious dictator who is determined to start world war III.\nDirector:\nMatthew Vaughn\nWriters:\nAshley Miller (screenplay), Zack Stentz (screenplay), and 4 more credits Ã‚Â»\nStars:\nJames McAvoy, Michael Fassbender and Jennifer Lawrence\n\n\n\n\n\n\n\n\n\n\n\n\n\n\n\n\n\n\n\n\n\nSource Used\n\n\nX-Men.First.Class.2011.BluRay.720p.x264.DTS-HDChina.......Thanks\n\n\nWho cares if a million copies out now i had stuff on.This is my copy with hardcoded english subs for the foreign speaking parts\n\nYou'll either still want or not\n\n\nEnjoy\n\n\n\n\n\nGreetz to IMAGiNE,A7X,BDK,TOXiC,Dankaholic,Rx,Boobyblue,TaRiQ786\n","torrent":{"xt":"urn:btih:c0433896341c357d7a2c6fb50615d1d505494d0f","amp;dn":"X-Men+First+Class+2011+BRRip+XViD+DTRG","amp;tr":["udp%3A%2F%2Ftracker.openbittorrent.com%3A80","udp%3A%2F%2Fopen.demonii.com%3A1337","udp%3A%2F%2Ftracker.coppersurfer.tk%3A6969","udp%3A%2F%2Fexodus.desync.com%3A6969"],"infoHash":"c0433896341c357d7a2c6fb50615d1d505494d0f","infoHashBuffer":{"type":"Buffer","data":[192,67,56,150,52,28,53,125,122,44,111,181,6,21,209,213,5,73,77,15]},"announce":[],"urlList":[]}}